<svg width="20" height="20" viewBox="0 0 20 20" fill="none" xmlns="http://www.w3.org/2000/svg">
<path fill-rule="evenodd" clip-rule="evenodd" d="M1.25 3.125C1.25 2.08947 2.08947 1.25 3.125 1.25H11.25C12.2855 1.25 13.125 2.08947 13.125 3.125V6.89062C13.125 7.2358 12.8452 7.51562 12.5 7.51562C12.1548 7.51562 11.875 7.2358 11.875 6.89062V3.125C11.875 2.77982 11.5952 2.5 11.25 2.5H3.125C2.77982 2.5 2.5 2.77982 2.5 3.125V11.25C2.5 11.5952 2.77982 11.875 3.125 11.875H6.875C7.22018 11.875 7.5 12.1548 7.5 12.5C7.5 12.8452 7.22018 13.125 6.875 13.125H3.125C2.08947 13.125 1.25 12.2855 1.25 11.25V3.125Z" fill="black"/>
<path fill-rule="evenodd" clip-rule="evenodd" d="M6.55472 5.625H5V4.375H9.375V5.625H7.80472V9.375H6.55472V5.625Z" fill="black"/>
<path fill-rule="evenodd" clip-rule="evenodd" d="M15.3228 7.01645C15.5898 6.79775 15.9836 6.83695 16.2023 7.10401C17.4035 8.57081 18.125 10.4516 18.125 12.5C18.125 14.5484 17.4035 16.4292 16.2023 17.896C15.9836 18.163 15.5898 18.2022 15.3228 17.9835C15.0557 17.7648 15.0165 17.3711 15.2352 17.104C16.2596 15.8531 16.875 14.2501 16.875 12.5C16.875 10.7499 16.2596 9.14689 15.2352 7.89599C15.0165 7.62893 15.0557 7.23515 15.3228 7.01645Z" fill="black"/>
<path fill-rule="evenodd" clip-rule="evenodd" d="M13.2917 8.32878C13.5589 8.1102 13.9526 8.14957 14.1712 8.41672C15.0795 9.52683 15.625 10.9503 15.625 12.5C15.625 14.0497 15.0795 15.4732 14.1712 16.5833C13.9526 16.8504 13.5589 16.8898 13.2917 16.6712C13.0246 16.4526 12.9852 16.0589 13.2038 15.7917C13.9354 14.8975 14.375 13.7517 14.375 12.5C14.375 11.2483 13.9354 10.1025 13.2038 9.20828C12.9852 8.94113 13.0246 8.54736 13.2917 8.32878Z" fill="black"/>
<path fill-rule="evenodd" clip-rule="evenodd" d="M11.2302 9.54671C11.4978 9.32868 11.8915 9.36887 12.1095 9.63647C12.7442 10.4154 13.125 11.414 13.125 12.5C13.125 13.586 12.7442 14.5846 12.1095 15.3635C11.8915 15.6311 11.4978 15.6713 11.2302 15.4533C10.9626 15.2353 10.9224 14.8416 11.1405 14.574C11.5991 14.0111 11.875 13.2895 11.875 12.5C11.875 11.7105 11.5991 10.9889 11.1405 10.426C10.9224 10.1584 10.9626 9.76474 11.2302 9.54671Z" fill="black"/>
<path fill-rule="evenodd" clip-rule="evenodd" d="M9.20105 10.8575C9.46958 10.6406 9.86309 10.6825 10.08 10.951C10.4211 11.3734 10.625 11.914 10.625 12.5C10.625 13.086 10.4211 13.6266 10.08 14.049C9.86309 14.3175 9.46958 14.3594 9.20105 14.1425C8.93252 13.9256 8.89065 13.5321 9.10753 13.2635C9.27399 13.0575 9.375 12.7924 9.375 12.5C9.375 12.2076 9.27399 11.9425 9.10753 11.7365C8.89065 11.4679 8.93252 11.0744 9.20105 10.8575Z" fill="black"/>
</svg>
